<svg xmlns="http://www.w3.org/2000/svg" width="805" height="600"><rect width="805" height="600" x="0" y="0" fill="#FFFFFF" id="background"/><g id="viz"><g transform="translate(0,0)"><g transform="translate(10,20)"><g><path fill="#9467bd" d="M0,337.4633252604833L2.8442028985507246,336.964175037175C5.688405797101449,336.46502481386665,11.376811594202898,335.46672436725004,17.065217391304348,335.1710617081556C22.753623188405797,334.8753990490611,28.442028985507246,335.2823741774889,34.130434782608695,335.63193621708336C39.81884057971015,335.98149825667775,45.507246376811594,336.2736472074389,51.19565217391304,338.30915343923056C56.88405797101449,340.34465967102227,62.57246376811594,344.1235231838445,68.26086956521739,344.88056305608893C73.94927536231883,345.63760292833337,79.6376811594203,343.37281916,85.32608695652173,339.90065666277775C91.01449275362319,336.42849416555555,96.70289855072463,331.74895293944445,102.39130434782608,328.9123507012778C108.07971014492755,326.0757484631111,113.76811594202898,325.0820852128889,119.45652173913044,323.9216559953889C125.14492753623188,322.7612267778889,130.83333333333334,321.4340315931111,136.52173913043478,317.9765432244056C142.21014492753622,314.51905485570006,147.89855072463766,308.9312733030667,153.58695652173913,302.72997155710283C159.2753623188406,296.52866981113897,164.96376811594203,289.7138478718445,170.65217391304347,264.7505068906056C176.3405797101449,239.78716590936673,182.02898550724638,196.6753058861834,187.71739130434784,175.70409886425833C193.40579710144928,154.73289184233334,199.09420289855072,155.90233782166663,204.78260869565216,155.59302040513884C210.4710144927536,155.28370298861105,216.15942028985503,153.4956221762222,221.8478260869565,149.3023963836778C227.53623188405797,145.1091705911334,233.2246376811594,138.51079981843338,238.91304347826087,133.1098743205084C244.60144927536234,127.70894882258337,250.28985507246375,123.50546859943336,255.97826086956522,121.30698280014444C261.6666666666667,119.10849700085555,267.3550724637681,118.91500562542775,273.04347826086956,116.51581547974445C278.731884057971,114.11662533406111,284.42028985507244,109.51173641812223,290.1086956521739,139.3846324541556C295.7971014492753,169.2575284901889,301.4855072463768,233.60820947819445,307.17391304347825,268.54853611565835C312.8623188405797,303.4888627531222,318.5507246376812,309.01883504004445,324.2391304347826,316.2462399048333C329.92753623188406,323.47364476962224,335.6159420289855,332.39848221227777,341.30434782608694,342.9887389871028C346.99275362318843,353.57899576192784,352.6811594202898,365.83467186892227,358.3695652173913,376.99285114018613C364.05797101449275,388.1510304114501,369.74637681159425,398.21171284698335,375.4347826086957,405.9381617850195C381.1231884057972,413.66461072305555,386.81159420289856,419.05682616359445,392.5,422.5527705622972C398.18840579710144,426.04871496100003,403.8768115942028,427.64838831786665,409.5652173913043,432.35688066168615C415.25362318840575,437.06537300550553,420.94202898550725,444.8826843362778,426.6304347826087,453.9672651473722C432.3188405797102,463.05184595846663,438.00724637681157,473.40369624988324,443.695652173913,480.05678176321356C449.3840579710145,486.7098672765439,455.072463768116,489.66418801178776,460.7608695652175,489.70452435239145C466.4492753623188,489.744860692995,472.1376811594203,486.8712126389583,477.82608695652175,484.7185196249391C483.5144927536232,482.56582661091994,489.2028985507247,481.1340886369183,494.89130434782606,477.84386913307026C500.57971014492756,474.5536496292222,506.268115942029,469.40494859552774,511.9565217391305,468.28097168016114C517.6449275362319,467.1569947647945,523.3333333333334,470.0577419677556,529.0217391304348,470.56402598162026C534.7101449275361,471.07030999548505,540.3985507246376,469.18213082025335,546.0869565217391,466.00103453570665C551.7753623188406,462.81993825116,557.463768115942,458.34592485729837,563.1521739130435,452.65701545218195C568.8405797101449,446.96810604706553,574.5289855072464,440.0643006306944,580.2173913043479,431.34615397225724C585.9057971014493,422.62800731382004,591.5942028985507,412.09551941331665,597.2826086956522,404.71424132206863C602.9710144927536,397.33296323082055,608.6594202898551,393.1028949488278,614.3478260869565,388.8320252164717C620.036231884058,384.56115548411555,625.7246376811594,380.2494843013961,631.4130434782609,377.87355098758417C637.1014492753624,375.49761767377225,642.7898550724639,375.05742222886784,648.4782608695652,374.2580871730731C654.1666666666666,373.4587521172784,659.8550724637681,372.30027745059334,665.5434782608695,371.5430666527864C671.231884057971,370.78585585497945,676.9202898550724,370.4299089260506,682.6086956521739,369.2974940733556C688.2971014492754,368.1650792206606,693.9855072463769,366.2561964441995,699.6739130434784,365.3188967630708C705.3623188405796,364.3815970819422,711.0507246376811,364.41588049614614,716.7391304347826,366.05517066811393C722.427536231884,367.6944608400817,728.1159420289855,370.9387577698133,733.804347826087,374.70343021800113C739.4927536231885,378.46810266618894,745.18115942029,382.7531506328328,750.8695652173914,386.548155420805C756.5579710144929,390.3431602087772,762.2463768115941,393.64812181807775,767.9347826086956,397.41427495478723C773.623188405797,401.18042809149665,779.3115942028985,405.40777275561504,782.1557971014494,407.5214450876742L785,409.6351174197334L785,409.6351174197334L782.1557971014494,407.5214450876742C779.3115942028985,405.40777275561504,773.623188405797,401.18042809149665,767.9347826086956,397.41427495478723C762.2463768115941,393.64812181807775,756.5579710144929,390.3431602087772,750.8695652173914,386.54815542080496C745.18115942029,382.7531506328328,739.4927536231885,378.46810266618894,733.804347826087,374.70343021800113C728.1159420289855,370.9387577698133,722.427536231884,367.6944608400817,716.7391304347826,366.05517066811393C711.0507246376811,364.41588049614614,705.3623188405796,364.3815970819422,699.6739130434781,365.3188967630708C693.9855072463769,366.2561964441995,688.2971014492754,368.1650792206606,682.6086956521739,369.2974940733555C676.9202898550724,370.4299089260506,671.231884057971,370.78585585497945,665.5434782608695,371.54306665278637C659.8550724637681,372.30027745059334,654.1666666666666,373.4587521172784,648.4782608695652,374.2580871730731C642.7898550724639,375.05742222886784,637.1014492753624,375.49761767377225,631.4130434782609,377.87355098758417C625.7246376811594,380.2494843013961,620.036231884058,384.56115548411555,614.3478260869565,388.8361812175478C608.6594202898551,393.11120695098,602.9710144927536,397.349587235125,597.2826086956521,404.74525348363363C591.5942028985507,412.14091973214227,585.9057971014493,422.69387194501445,580.2173913043478,431.42610972622C574.5289855072464,440.15834750742556,568.8405797101449,447.0698708569644,563.1521739130435,452.8110808085258C557.463768115942,458.55229076008726,551.7753623188406,463.12318731367117,546.0869565217391,466.41077471418447C540.3985507246376,469.69836211469783,534.7101449275361,471.7026403621406,529.0217391304348,471.7137728737369C523.3333333333334,471.7249053853334,517.6449275362319,469.7428921610834,511.95652173913044,471.90159557080557C506.268115942029,474.06029898052776,500.57971014492756,480.35971902422233,494.8913043478262,485.10592451095914C489.2028985507247,489.8521299976962,483.5144927536232,493.04512092747547,477.82608695652175,497.67920973565634C472.1376811594203,502.3132985438372,466.4492753623188,508.3884852304195,460.76086956521743,512.9298365573659C455.072463768116,517.4711878843123,449.3840579710145,520.4787038516228,443.695652173913,519.421260078353C438.00724637681157,518.3638163050833,432.3188405797102,513.2414127912333,426.63043478260875,507.79442957597774C420.94202898550725,502.34744636072224,415.25362318840575,496.57588344406105,409.5652173913043,495.9036530331305C403.8768115942028,495.2314226222,398.18840579710144,499.65852471700003,392.5,502.472912578075C386.81159420289856,505.28730043915,381.1231884057972,506.4889740665,375.4347826086957,507.3015888947973C369.74637681159425,508.1142037230945,364.05797101449275,508.5377597523389,358.3695652173913,502.92562747746393C352.6811594202898,497.3134952025889,346.99275362318843,485.66567462359444,341.30434782608694,477.46434835349163C335.6159420289855,469.2630220833889,329.92753623188406,464.5081901221777,324.2391304347826,458.8891148158889C318.5507246376812,453.27003950959994,312.8623188405797,446.78672085823337,307.17391304347825,416.0216501560472C301.4855072463768,385.2565794538611,295.7971014492753,330.2097567008555,290.1086956521739,304.99940754137776C284.42028985507244,279.7890583819,278.731884057971,284.41518281595,273.04347826086956,287.36911650452225C267.3550724637681,290.3230501930945,261.6666666666667,291.60479313618896,255.97826086956525,291.4449499095112C250.28985507246375,291.2851066828334,244.60144927536234,289.68367728638333,238.91304347826087,288.82772308103057C233.2246376811594,287.97176887567775,227.53623188405797,287.8612898614222,221.84782608695653,288.30842021937775C216.15942028985503,288.7555505773333,210.4710144927536,289.76029030749993,204.78260869565213,290.20732746625C199.09420289855072,290.65436462499997,193.40579710144928,290.5436992123333,187.71739130434784,307.30936535703614C182.02898550724638,324.0750315017389,176.3405797101449,357.71702920381114,170.65217391304347,374.5039211860722C164.96376811594203,391.2908131683334,159.2753623188406,391.2225994307833,153.58695652173913,394.3950909925806C147.89855072463766,397.5675825543778,142.21014492753622,403.98077941552225,136.52173913043478,407.6681806059833C130.83333333333334,411.3555817964445,125.14492753623188,412.31718731622226,119.45652173913044,415.7519497817778C113.76811594202898,419.18671224733333,108.07971014492755,425.0946316586667,102.39130434782608,434.3809427218334C96.70289855072463,443.667253785,91.01449275362319,456.3319565,85.32608695652173,459.88244890000004C79.6376811594203,463.43294130000004,73.94927536231883,457.869223385,68.26086956521739,450.2826459472444C62.57246376811594,442.6960685094889,56.88405797101449,433.0866315489778,51.19565217391304,426.43873550854727C45.507246376811594,419.7908394681167,39.81884057971015,416.1044843477667,34.130434782608695,414.3720384640278C28.442028985507246,412.6395925802888,22.753623188405797,412.86105593316114,17.065217391304348,413.36960436239997C11.376811594202898,413.8781527916389,5.688405797101449,414.6737862972445,2.8442028985507246,415.07160305004726L0,415.46941980285004Z"><title>Tape</title></path><path fill="#1f77b4" d="M0,415.46941980285004L2.8442028985507246,415.07160305004726C5.688405797101449,414.6737862972445,11.376811594202898,413.8781527916389,17.065217391304348,413.36960436239997C22.753623188405797,412.86105593316114,28.442028985507246,412.6395925802888,34.130434782608695,414.3720384640278C39.81884057971015,416.1044843477667,45.507246376811594,419.7908394681167,51.19565217391304,426.43873550854727C56.88405797101449,433.0866315489778,62.57246376811594,442.6960685094889,68.26086956521739,450.2826459472444C73.94927536231883,457.869223385,79.6376811594203,463.43294130000004,85.32608695652173,459.88244890000004C91.01449275362319,456.3319565,96.70289855072463,443.667253785,102.39130434782608,434.3809427218334C108.07971014492755,425.0946316586667,113.76811594202898,419.18671224733333,119.45652173913044,415.7519497817778C125.14492753623188,412.31718731622226,130.83333333333334,411.3555817964445,136.52173913043478,407.83484727265005C142.21014492753622,404.3141127488556,147.89855072463766,398.2342492210444,153.58695652173913,395.2284243259139C159.2753623188406,392.2225994307833,164.96376811594203,392.2908131683334,170.65217391304347,393.34936099040556C176.3405797101449,394.40790881247784,182.02898550724638,396.4567907190722,187.71739130434784,394.28601738086945C193.40579710144928,392.1152440426667,199.09420289855072,385.7248154596667,204.78260869565216,378.5853360086389C210.4710144927536,371.4458565576111,216.15942028985503,363.55732623855556,221.8478260869565,348.5153030741C227.53623188405797,333.4732799096444,233.2246376811594,311.2777638997889,238.91304347826087,300.9807205930861C244.60144927536234,290.68367728638333,250.28985507246375,292.2851066828334,255.97826086956522,292.4449499095112C261.6666666666667,292.60479313618896,267.3550724637681,291.3230501930945,273.04347826086956,288.36911650452225C278.731884057971,285.41518281595,284.42028985507244,280.7890583819,290.1086956521739,250.02177963733888C295.7971014492753,219.25450089277774,301.4855072463768,162.34606783770553,307.17391304347825,130.51175019455832C312.8623188405797,98.67743255141109,318.5507246376812,91.91723032018888,324.2391304347826,85.94851011445C329.92753623188406,79.9797899087111,335.6159420289855,74.80255172845555,341.30434782608694,66.2963970109639C346.99275362318843,57.79024229347224,352.6811594202898,45.95517103874448,358.3695652173913,40.33025263740838C364.05797101449275,34.705334236072275,369.74637681159425,35.29056868812782,375.4347826086957,36.05934897820281C381.1231884057972,36.8281292682778,386.81159420289856,37.78045539637223,392.5,40.06722437579722C398.18840579710144,42.353993355222194,403.8768115942028,45.97520518597772,409.5652173913043,43.870542873408276C415.25362318840575,41.76588056083882,420.94202898550725,33.9353441049444,426.6304347826087,28.31725956220552C432.3188405797102,22.69917501946664,438.00724637681157,19.29354238988331,443.695652173913,19.75942844460249C449.3840579710145,20.225314499321673,455.072463768116,24.562719238343366,460.7608695652175,29.496505754002538C466.4492753623188,34.4302922696617,472.1376811594203,39.96046056195834,477.82608695652175,46.44967919835028C483.5144927536232,52.93889783474223,489.2028985507247,60.38716681522948,494.89130434782606,66.61182289353141C500.57971014492756,72.83647897183336,506.268115942029,77.83752214794998,511.9565217391305,79.87748021733275C517.6449275362319,81.91743828671552,523.3333333333334,80.99631124936442,529.0217391304348,81.74086971747748C534.7101449275361,82.48542818559055,540.3985507246376,84.89567215916777,546.0869565217391,88.38624242274831C551.7753623188406,91.87681268632885,557.463768115942,96.44770923991273,563.1521739130435,102.18891919147411C568.8405797101449,107.93012914303551,574.5289855072464,114.84165249257444,580.2173913043479,123.57389027378001C585.9057971014493,132.30612805498558,591.5942028985507,142.85908026785776,597.2826086956522,150.42141318303305C602.9710144927536,157.98374609820834,608.6594202898551,162.55545971568668,614.3478260869565,166.99715211578555C620.036231884058,171.43884451588443,625.7246376811594,175.7505156986039,631.4130434782609,178.12644901241583C637.1014492753624,180.50238232622777,642.7898550724639,180.9425777711322,648.4782608695652,194.969893354138C654.1666666666666,208.99720893714388,659.8550724637681,236.61164465825107,665.5434782608695,249.99887885757468C671.231884057971,263.3861130568983,676.9202898550724,262.5461457344383,682.6086956521739,269.18107810385C688.2971014492754,275.81601047326166,693.9855072463769,289.925842534545,699.6739130434784,298.0382357092025C705.3623188405796,306.15062888386,711.0507246376811,308.26558317189165,716.7391304347826,312.29094598286775C722.427536231884,316.31630879384386,728.1159420289855,322.25208012776443,733.804347826087,327.6788112065933C739.4927536231885,333.10554228542225,745.18115942029,338.02323310915943,750.8695652173914,343.4403015800023C756.5579710144929,348.857370050845,762.2463768115941,354.7738161687933,767.9347826086956,360.01011671762393C773.623188405797,365.2464172664545,779.3115942028985,369.80257224616724,782.1557971014494,372.08064973602364L785,374.35872722588005L785,388.71163831751335L782.1557971014494,386.8105875833531C779.3115942028985,384.90953684919276,773.623188405797,381.1074353808722,767.9347826086956,377.77699758016666C762.2463768115941,374.4465597794611,756.5579710144929,371.58778564637055,750.8695652173914,368.09178627775276C745.18115942029,364.59578690913503,739.4927536231885,360.46256230498994,733.804347826087,356.80856686492217C728.1159420289855,353.1545714248544,722.427536231884,349.97980514886393,716.7391304347826,348.742312528195C711.0507246376811,347.50481990752616,705.3623188405796,348.20460094217896,699.6739130434781,343.17315126000534C693.9855072463769,338.1417015778317,688.2971014492754,327.3790211788317,682.6086956521739,324.04932408732554C676.9202898550724,320.71962699581945,671.231884057971,324.8229132118072,665.5434782608695,316.01105898027083C659.8550724637681,307.1992047487344,654.1666666666666,285.47221006967385,648.4782608695652,276.13641169739805C642.7898550724639,266.80061332512224,637.1014492753624,269.8560112596311,631.4130434782609,273.7929635722481C625.7246376811594,277.729915884865,620.036231884058,282.54842257559,614.3478260869565,287.92759123625945C608.6594202898551,293.3067598969289,602.9710144927536,299.24659052754276,597.2826086956521,307.4616973661814C591.5942028985507,315.67680420482,585.9057971014493,326.1671872514833,580.2173913043478,338.42674639903777C574.5289855072464,350.68630554659217,568.8405797101449,364.71504079503774,563.1521739130435,376.818438982293C557.463768115942,388.9218371695483,551.7753623188406,399.0998982956133,546.0869565217391,409.7335292267572C540.3985507246376,420.3671601579011,534.7101449275361,431.4563608941239,529.0217391304348,438.0820374438831C523.3333333333334,444.70771399364224,517.6449275362319,446.8698663569378,511.95652173913044,451.0885062214495C506.268115942029,455.30714608596116,500.57971014492756,461.58227345168893,494.8913043478262,467.24319776247034C489.2028985507247,472.9041220732517,483.5144927536232,477.95084332908664,477.82608695652175,481.91102798402244C472.1376811594203,485.8712126389583,466.4492753623188,488.744860692995,460.76086956521743,488.7045243523914C455.072463768116,488.66418801178776,449.3840579710145,485.7098672765439,443.695652173913,479.0567817632136C438.00724637681157,472.40369624988324,432.3188405797102,462.05184595846663,426.63043478260875,452.9672651473722C420.94202898550725,443.8826843362778,415.25362318840575,436.06537300550553,409.5652173913043,431.35688066168615C403.8768115942028,426.64838831786665,398.18840579710144,425.04871496100003,392.5,421.5527705622972C386.81159420289856,418.05682616359445,381.1231884057972,412.66461072305555,375.4347826086957,404.9381617850195C369.74637681159425,397.21171284698335,364.05797101449275,387.1510304114501,358.3695652173913,375.99285114018613C352.6811594202898,364.83467186892227,346.99275362318843,352.57899576192784,341.30434782608694,341.9887389871028C335.6159420289855,331.39848221227777,329.92753623188406,322.47364476962224,324.2391304347826,315.2462399048333C318.5507246376812,308.01883504004445,312.8623188405797,302.4888627531222,307.17391304347825,322.55949697631945C301.4855072463768,342.63013119951665,295.7971014492753,388.3013719328333,290.1086956521739,407.89640435513337C284.42028985507244,427.49143677743336,278.731884057971,421.0102608887167,273.04347826086956,415.30896550964445C267.3550724637681,409.6076701305722,261.6666666666667,404.6862552611445,255.97826086956525,397.72555865502227C250.28985507246375,390.76486204890006,244.60144927536234,381.7648837060833,238.91304347826087,382.8528200801583C233.2246376811594,383.9407564542333,227.53623188405797,395.1166075452,221.84782608695653,399.8104926844889C216.15942028985503,404.50437782377776,210.4710144927536,402.7162970113889,204.78260869565213,402.40697959486107C199.09420289855072,402.0976621783334,193.40579710144928,403.26710815766666,187.71739130434784,402.01060284040835C182.02898550724638,400.75409752315,176.3405797101449,397.0716409093,170.65217391304347,395.0246128353389C164.96376811594203,392.9775847613778,159.2753623188406,392.5659852273056,153.58695652173913,395.40011722417495C147.89855072463766,398.2342492210444,142.21014492753622,404.3141127488556,136.52173913043478,407.83484727265C130.83333333333334,411.3555817964445,125.14492753623188,412.31718731622226,119.45652173913044,415.7519497817778C113.76811594202898,419.18671224733333,108.07971014492755,425.0946316586667,102.39130434782608,434.3809427218334C96.70289855072463,443.667253785,91.01449275362319,456.3319565,85.32608695652173,459.88244890000004C79.6376811594203,463.43294130000004,73.94927536231883,457.869223385,68.26086956521739,450.2826459472444C62.57246376811594,442.6960685094889,56.88405797101449,433.0866315489778,51.19565217391304,426.43873550854727C45.507246376811594,419.7908394681167,39.81884057971015,416.1044843477667,34.130434782608695,414.3720384640278C28.442028985507246,412.6395925802888,22.753623188405797,412.86105593316114,17.065217391304348,413.36960436239997C11.376811594202898,413.8781527916389,5.688405797101449,414.6737862972445,2.8442028985507246,415.07160305004726L0,415.46941980285004Z"><title>Disc</title></path><path fill="#ff7f0e" d="M0,415.46941980285004L2.8442028985507246,415.07160305004726C5.688405797101449,414.6737862972445,11.376811594202898,413.8781527916389,17.065217391304348,413.36960436239997C22.753623188405797,412.86105593316114,28.442028985507246,412.6395925802888,34.130434782608695,414.3720384640278C39.81884057971015,416.1044843477667,45.507246376811594,419.7908394681167,51.19565217391304,426.43873550854727C56.88405797101449,433.0866315489778,62.57246376811594,442.6960685094889,68.26086956521739,450.2826459472444C73.94927536231883,457.869223385,79.6376811594203,463.43294130000004,85.32608695652173,459.88244890000004C91.01449275362319,456.3319565,96.70289855072463,443.667253785,102.39130434782608,434.3809427218334C108.07971014492755,425.0946316586667,113.76811594202898,419.18671224733333,119.45652173913044,415.7519497817778C125.14492753623188,412.31718731622226,130.83333333333334,411.3555817964445,136.52173913043478,407.6681806059834C142.21014492753622,403.98077941552225,147.89855072463766,397.5675825543778,153.58695652173913,394.7334505575084C159.2753623188406,391.8993185606389,164.96376811594203,392.64425142804447,170.65217391304347,394.85794616867224C176.3405797101449,397.0716409093,182.02898550724638,400.75409752315,187.71739130434784,402.01060284040835C193.40579710144928,403.26710815766666,199.09420289855072,402.0976621783334,204.78260869565216,402.40697959486107C210.4710144927536,402.7162970113889,216.15942028985503,404.50437782377776,221.8478260869565,408.69760361632217C227.53623188405797,412.89082940886664,233.2246376811594,419.4892001815667,238.91304347826087,424.723459012825C244.60144927536234,429.95771784408333,250.28985507246375,433.8278647339,255.97826086956522,435.8596838665223C261.6666666666667,437.89150299914445,267.3550724637681,438.08499437457226,273.04347826086956,440.4841845202556C278.731884057971,442.8833746659389,284.42028985507244,447.48826358187785,290.1086956521739,449.70224349310564C295.7971014492753,451.9162234043334,301.4855072463768,451.73929431085,307.17391304347825,455.0309308797194C312.8623188405797,458.32256744858887,318.5507246376812,465.08276967981107,324.2391304347826,471.0514898855499C329.92753623188406,477.02021009128885,335.6159420289855,482.1974482715444,341.30434782608694,490.70360298903614C346.99275362318843,499.2097577065278,352.6811594202898,511.0448289612555,358.3695652173913,516.6697473625917C364.05797101449275,522.2946657639278,369.74637681159425,521.7094313118722,375.4347826086957,520.9406510217972C381.1231884057972,520.1718707317223,386.81159420289856,519.2195446036278,392.5,516.9327756242028C398.18840579710144,514.6460066447778,403.8768115942028,511.02479481402224,409.5652173913043,513.1294571265917C415.25362318840575,515.2341194391611,420.94202898550725,523.0646558950556,426.6304347826087,528.6827404377945C432.3188405797102,534.3008249805333,438.00724637681157,537.7064576101166,443.695652173913,537.2405715553974C449.3840579710145,536.7746855006783,455.072463768116,532.4372807616567,460.7608695652175,527.5034942459974C466.4492753623188,522.5697077303383,472.1376811594203,517.0395394380416,477.82608695652175,510.55032080164966C483.5144927536232,504.06110216525775,489.2028985507247,496.6128331847706,494.89130434782606,490.05484377313525C500.57971014492756,483.4968543615,506.268115942029,477.8291445187167,511.9565217391305,473.6226802827667C517.6449275362319,469.4162160468167,523.3333333333334,466.6709974177,529.0217391304348,456.3570848753241C534.7101449275361,446.04317233294836,540.3985507246376,428.16056587731333,546.0869565217391,414.13023208646337C551.7753623188406,400.0998982956133,557.463768115942,389.9218371695483,563.1521739130435,377.818438982293C568.8405797101449,365.71504079503774,574.5289855072464,351.68630554659217,580.2173913043479,339.42674639903777C585.9057971014493,327.1671872514833,591.5942028985507,316.67680420482,597.2826086956522,308.46169736618134C602.9710144927536,300.24659052754276,608.6594202898551,294.3067598969289,614.3478260869565,288.9275912362595C620.036231884058,283.54842257559,625.7246376811594,278.729915884865,631.4130434782609,274.7929635722481C637.1014492753624,270.8560112596311,642.7898550724639,267.80061332512224,648.4782608695652,252.95841132878084C654.1666666666666,238.11620933243944,659.8550724637681,211.48720327426554,665.5434782608695,198.35067370964305C671.231884057971,185.21414414502055,676.9202898550724,185.57009107394944,682.6086956521739,186.70250592664445C688.2971014492754,187.83492077933943,693.9855072463769,189.74380355580055,699.6739130434784,200.62693294992914C705.3623188405796,211.5100623440578,711.0507246376811,231.3674383558539,716.7391304347826,246.30751252247498C722.427536231884,261.24758668909607,728.1159420289855,271.27035901054217,733.804347826087,280.7022604489655C739.4927536231885,290.13416188738887,745.18115942029,298.9751924427894,750.8695652173914,307.93513595072835C756.5579710144929,316.8950794586672,762.2463768115941,325.9739359191445,767.9347826086956,333.57603075899056C773.623188405797,341.1781255988367,779.3115942028985,347.3034588180517,782.1557971014494,350.3661254276592L785,353.4287920372667L785,373.35872722588005L782.1557971014494,371.08064973602364C779.3115942028985,368.80257224616724,773.623188405797,364.2464172664545,767.9347826086956,359.01011671762393C762.2463768115941,353.7738161687933,756.5579710144929,347.857370050845,750.8695652173914,342.4403015800022C745.18115942029,337.02323310915943,739.4927536231885,332.10554228542225,733.804347826087,326.6788112065933C728.1159420289855,321.25208012776443,722.427536231884,315.31630879384386,716.7391304347826,303.4494674053122C711.0507246376811,291.5826260167805,705.3623188405796,273.78471457363776,699.6739130434781,265.6723213989803C693.9855072463769,257.55992822432273,688.2971014492754,259.13305331815053,682.6086956521739,260.3395995262944C676.9202898550724,261.5461457344383,671.231884057971,262.3861130568983,665.5434782608695,275.88512948429303C659.8550724637681,289.38414591168777,654.1666666666666,315.54221144401725,648.4782608695652,329.60359925457533C642.7898550724639,343.6649870651334,637.1014492753624,345.62969715392,631.4130434782609,349.0679551871203C625.7246376811594,352.5062132203206,620.036231884058,357.4180191979344,614.3478260869565,362.9195807321983C608.6594202898551,368.42114226646225,602.9710144927536,374.51245935737614,597.2826086956521,381.8744926885592C591.5942028985507,389.23652601974226,585.9057971014493,397.8692755911945,580.2173913043478,405.86317309351557C574.5289855072464,413.85707059583666,568.8405797101449,421.2121160290267,563.1521739130435,426.5468100722153C557.463768115942,431.8815041154039,551.7753623188406,435.1958467685911,546.0869565217391,442.05474995203554C540.3985507246376,448.91365313548,534.7101449275361,459.3171168491817,529.0217391304348,464.92565772487416C523.3333333333334,470.5341986005667,517.6449275362319,471.34781663825,511.95652173913044,474.58848057848337C506.268115942029,477.8291445187167,500.57971014492756,483.4968543615,494.8913043478262,490.05484377313525C489.2028985507247,496.6128331847706,483.5144927536232,504.06110216525775,477.82608695652175,510.55032080164966C472.1376811594203,517.0395394380416,466.4492753623188,522.5697077303383,460.76086956521743,527.5034942459974C455.072463768116,532.4372807616567,449.3840579710145,536.7746855006783,443.695652173913,537.2405715553974C438.00724637681157,537.7064576101166,432.3188405797102,534.3008249805333,426.63043478260875,528.6827404377945C420.94202898550725,523.0646558950556,415.25362318840575,515.2341194391611,409.5652173913043,513.1294571265917C403.8768115942028,511.02479481402224,398.18840579710144,514.6460066447778,392.5,516.9327756242028C386.81159420289856,519.2195446036278,381.1231884057972,520.1718707317223,375.4347826086957,520.9406510217973C369.74637681159425,521.7094313118722,364.05797101449275,522.2946657639278,358.3695652173913,516.6697473625917C352.6811594202898,511.0448289612555,346.99275362318843,499.2097577065278,341.30434782608694,490.703602989036C335.6159420289855,482.1974482715444,329.92753623188406,477.02021009128885,324.2391304347826,471.05148988555C318.5507246376812,465.08276967981107,312.8623188405797,458.32256744858887,307.17391304347825,455.0309308797195C301.4855072463768,451.73929431085,295.7971014492753,451.9162234043334,290.1086956521739,449.70224349310564C284.42028985507244,447.48826358187785,278.731884057971,442.8833746659389,273.04347826086956,440.4841845202556C267.3550724637681,438.08499437457226,261.6666666666667,437.89150299914445,255.97826086956525,435.8596838665222C250.28985507246375,433.8278647339,244.60144927536234,429.95771784408333,238.91304347826087,424.72345901282506C233.2246376811594,419.4892001815667,227.53623188405797,412.89082940886664,221.84782608695653,408.69760361632217C216.15942028985503,404.50437782377776,210.4710144927536,402.7162970113889,204.78260869565213,402.40697959486107C199.09420289855072,402.0976621783334,193.40579710144928,403.26710815766666,187.71739130434784,402.01060284040835C182.02898550724638,400.75409752315,176.3405797101449,397.0716409093,170.65217391304347,394.85794616867224C164.96376811594203,392.64425142804447,159.2753623188406,391.8993185606389,153.58695652173913,394.7334505575083C147.89855072463766,397.5675825543778,142.21014492753622,403.98077941552225,136.52173913043478,407.6681806059833C130.83333333333334,411.3555817964445,125.14492753623188,412.31718731622226,119.45652173913044,415.7519497817778C113.76811594202898,419.18671224733333,108.07971014492755,425.0946316586667,102.39130434782608,434.3809427218334C96.70289855072463,443.667253785,91.01449275362319,456.3319565,85.32608695652173,459.88244890000004C79.6376811594203,463.43294130000004,73.94927536231883,457.869223385,68.26086956521739,450.2826459472444C62.57246376811594,442.6960685094889,56.88405797101449,433.0866315489778,51.19565217391304,426.43873550854727C45.507246376811594,419.7908394681167,39.81884057971015,416.1044843477667,34.130434782608695,414.3720384640278C28.442028985507246,412.6395925802888,22.753623188405797,412.86105593316114,17.065217391304348,413.36960436239997C11.376811594202898,413.8781527916389,5.688405797101449,414.6737862972445,2.8442028985507246,415.07160305004726L0,415.46941980285004Z"><title>Download</title></path><path fill="#2ca02c" d="M0,415.46941980285004L2.8442028985507246,415.07160305004726C5.688405797101449,414.6737862972445,11.376811594202898,413.8781527916389,17.065217391304348,413.36960436239997C22.753623188405797,412.86105593316114,28.442028985507246,412.6395925802888,34.130434782608695,414.3720384640278C39.81884057971015,416.1044843477667,45.507246376811594,419.7908394681167,51.19565217391304,426.43873550854727C56.88405797101449,433.0866315489778,62.57246376811594,442.6960685094889,68.26086956521739,450.2826459472444C73.94927536231883,457.869223385,79.6376811594203,463.43294130000004,85.32608695652173,459.88244890000004C91.01449275362319,456.3319565,96.70289855072463,443.667253785,102.39130434782608,434.3809427218334C108.07971014492755,425.0946316586667,113.76811594202898,419.18671224733333,119.45652173913044,415.7519497817778C125.14492753623188,412.31718731622226,130.83333333333334,411.3555817964445,136.52173913043478,407.6681806059834C142.21014492753622,403.98077941552225,147.89855072463766,397.5675825543778,153.58695652173913,394.7334505575084C159.2753623188406,391.8993185606389,164.96376811594203,392.64425142804447,170.65217391304347,394.85794616867224C176.3405797101449,397.0716409093,182.02898550724638,400.75409752315,187.71739130434784,402.01060284040835C193.40579710144928,403.26710815766666,199.09420289855072,402.0976621783334,204.78260869565216,402.40697959486107C210.4710144927536,402.7162970113889,216.15942028985503,404.50437782377776,221.8478260869565,408.69760361632217C227.53623188405797,412.89082940886664,233.2246376811594,419.4892001815667,238.91304347826087,424.723459012825C244.60144927536234,429.95771784408333,250.28985507246375,433.8278647339,255.97826086956522,434.93441628318897C261.6666666666667,436.04096783247786,267.3550724637681,434.3839240412389,273.04347826086956,435.4724455323667C278.731884057971,436.56096702349447,284.42028985507244,440.395053796989,290.1086956521739,441.8244741231335C295.7971014492753,443.2538944492778,301.4855072463768,442.2786483280723,307.17391304347825,445.03268459315285C312.8623188405797,447.78672085823337,318.5507246376812,454.27003950959994,324.2391304347826,459.8891148158889C329.92753623188406,465.5081901221777,335.6159420289855,470.2630220833889,341.30434782608694,478.4643483534917C346.99275362318843,486.66567462359444,352.6811594202898,498.3134952025889,358.3695652173913,503.92562747746393C364.05797101449275,509.5377597523389,369.74637681159425,509.1142037230945,375.4347826086957,508.3015888947973C381.1231884057972,507.4889740665,386.81159420289856,506.28730043915,392.5,503.472912578075C398.18840579710144,500.65852471700003,403.8768115942028,496.2314226222,409.5652173913043,496.90365303313047C415.25362318840575,497.57588344406105,420.94202898550725,503.34744636072224,426.6304347826087,508.79442957597774C432.3188405797102,514.2414127912333,438.00724637681157,519.3638163050833,443.695652173913,520.4212600783529C449.3840579710145,521.4787038516228,455.072463768116,518.4711878843123,460.7608695652175,513.9298365573659C466.4492753623188,509.3884852304195,472.1376811594203,503.3132985438372,477.82608695652175,495.5455866939064C483.5144927536232,487.7778748439755,489.2028985507247,478.3176378306961,494.89130434782606,470.4499556411925C500.57971014492756,462.58227345168893,506.268115942029,456.30714608596116,511.9565217391305,452.08850622144945C517.6449275362319,447.8698663569378,523.3333333333334,445.70771399364224,529.0217391304348,443.9540757772331C534.7101449275361,442.2004375608239,540.3985507246376,440.8553134913011,546.0869565217391,438.5255801299461C551.7753623188406,436.1958467685911,557.463768115942,432.8815041154039,563.1521739130435,427.5468100722153C568.8405797101449,422.2121160290267,574.5289855072464,414.85707059583666,580.2173913043479,408.5139939227377C585.9057971014493,402.1709172496389,591.5942028985507,396.8398093366311,597.2826086956522,389.47777600544805C602.9710144927536,382.115742674265,608.6594202898551,372.7227839249067,614.3478260869565,367.8417235520317C620.036231884058,362.96066317915665,625.7246376811594,362.59150118276506,631.4130434782609,362.20879649795364C637.1014492753624,361.8260918131422,642.7898550724639,361.42984443991116,648.4782608695652,360.6862811115925C654.1666666666666,359.94271778327385,659.8550724637681,358.8518384998678,665.5434782608695,357.9902770096708C671.231884057971,357.1287155194739,676.9202898550724,356.49647182248606,682.6086956521739,355.18704228254774C688.2971014492754,353.8776127426095,693.9855072463769,351.8909973597206,699.6739130434784,352.13703519098925C705.3623188405796,352.3830730222578,711.0507246376811,354.8617640676839,716.7391304347826,357.758503031C722.427536231884,360.6552419943161,728.1159420289855,363.97002887552225,733.804347826087,367.801933988895C739.4927536231885,371.63383910226776,745.18115942029,375.98286244780724,750.8695652173914,379.66708474234946C756.5579710144929,383.3513070368917,762.2463768115941,386.3707282804367,767.9347826086956,390.06218373746947C773.623188405797,393.7536391945023,779.3115942028985,398.1171288650228,782.1557971014494,400.2988737002831L785,402.48061853554333L785,409.6351174197334L782.1557971014494,407.5214450876742C779.3115942028985,405.40777275561504,773.623188405797,401.18042809149665,767.9347826086956,397.41427495478723C762.2463768115941,393.64812181807775,756.5579710144929,390.3431602087772,750.8695652173914,386.54815542080496C745.18115942029,382.7531506328328,739.4927536231885,378.46810266618894,733.804347826087,374.70343021800113C728.1159420289855,370.9387577698133,722.427536231884,367.6944608400817,716.7391304347826,364.84132318773555C711.0507246376811,361.9881855353895,705.3623188405796,359.5262071604289,699.6739130434781,359.3847274053937C693.9855072463769,359.24324765035834,688.2971014492754,361.42226651524834,682.6086956521739,362.88533650681717C676.9202898550724,364.3484064983861,671.231884057971,365.09552761663394,665.5434782608695,366.2167759870692C659.8550724637681,367.3380243575045,654.1666666666666,368.83339998012724,648.4782608695652,369.9334362620231C642.7898550724639,371.03347254391883,637.1014492753624,371.7381694850878,631.4130434782609,372.51204519839916C625.7246376811594,373.2859209117105,620.036231884058,374.1289753971644,614.3478260869565,378.37378328466275C608.6594202898551,382.61859117216113,602.9710144927536,390.26515246170385,597.2826086956521,398.03832284305304C591.5942028985507,405.8114932244022,585.9057971014493,413.71127269755783,580.2173913043478,421.23305637856174C574.5289855072464,428.7548400595656,568.8405797101449,435.89862794841775,563.1521739130435,442.00956860139695C557.463768115942,448.12050925437615,551.7753623188406,453.1986026714822,546.0869565217391,456.5124964967011C540.3985507246376,459.82639032192,534.7101449275361,461.3760845552517,529.0217391304348,462.2060098007925C523.3333333333334,463.03593504633335,517.6449275362319,463.1460913040833,511.95652173913044,465.7755199498056C506.268115942029,468.40494859552774,500.57971014492756,473.5536496292222,494.8913043478262,481.0990729142797C489.2028985507247,488.6444961993372,483.5144927536232,498.5866417357577,477.82608695652175,506.3411191331052C472.1376811594203,514.0955965304528,466.4492753623188,519.6624057887273,460.76086956521743,524.5700169065753C455.072463768116,529.4776280244233,449.3840579710145,533.7260410018449,443.695652173913,534.1395625760197C438.00724637681157,534.5530841501944,432.3188405797102,531.1317143211222,426.63043478260875,525.4430995424223C420.94202898550725,519.7544847637222,415.25362318840575,511.7986250353944,409.5652173913043,509.5239237490194C403.8768115942028,507.2492224626444,398.18840579710144,510.6556796182222,392.5,512.9008452729084C386.81159420289856,515.1460109275945,381.1231884057972,516.2298850813889,375.4347826086957,517.0967835205751C369.74637681159425,517.9636819597612,364.05797101449275,518.613604684339,358.3695652173913,513.0318821800751C352.6811594202898,507.45015967581116,346.99275362318843,495.63679194270554,341.30434782608694,487.00049614382505C335.6159420289855,478.3642003449445,329.92753623188406,472.90497648028895,324.2391304347826,466.68040290727777C318.5507246376812,460.45582933426664,312.8623188405797,453.4659060529,307.17391304347825,450.9071393665972C301.4855072463768,448.34837268029446,295.7971014492753,450.2207625890556,290.1086956521739,448.85451308546675C284.42028985507244,447.48826358187785,278.731884057971,442.8833746659389,273.04347826086956,440.4841845202556C267.3550724637681,438.08499437457226,261.6666666666667,437.89150299914445,255.97826086956525,435.8596838665222C250.28985507246375,433.8278647339,244.60144927536234,429.95771784408333,238.91304347826087,424.72345901282506C233.2246376811594,419.4892001815667,227.53623188405797,412.89082940886664,221.84782608695653,408.69760361632217C216.15942028985503,404.50437782377776,210.4710144927536,402.7162970113889,204.78260869565213,402.40697959486107C199.09420289855072,402.0976621783334,193.40579710144928,403.26710815766666,187.71739130434784,402.01060284040835C182.02898550724638,400.75409752315,176.3405797101449,397.0716409093,170.65217391304347,394.85794616867224C164.96376811594203,392.64425142804447,159.2753623188406,391.8993185606389,153.58695652173913,394.7334505575083C147.89855072463766,397.5675825543778,142.21014492753622,403.98077941552225,136.52173913043478,407.6681806059833C130.83333333333334,411.3555817964445,125.14492753623188,412.31718731622226,119.45652173913044,415.7519497817778C113.76811594202898,419.18671224733333,108.07971014492755,425.0946316586667,102.39130434782608,434.3809427218334C96.70289855072463,443.667253785,91.01449275362319,456.3319565,85.32608695652173,459.88244890000004C79.6376811594203,463.43294130000004,73.94927536231883,457.869223385,68.26086956521739,450.2826459472444C62.57246376811594,442.6960685094889,56.88405797101449,433.0866315489778,51.19565217391304,426.43873550854727C45.507246376811594,419.7908394681167,39.81884057971015,416.1044843477667,34.130434782608695,414.3720384640278C28.442028985507246,412.6395925802888,22.753623188405797,412.86105593316114,17.065217391304348,413.36960436239997C11.376811594202898,413.8781527916389,5.688405797101449,414.6737862972445,2.8442028985507246,415.07160305004726L0,415.46941980285004Z"><title>Other</title></path><path fill="#d62728" d="M0,415.46941980285004L2.8442028985507246,415.07160305004726C5.688405797101449,414.6737862972445,11.376811594202898,413.8781527916389,17.065217391304348,413.36960436239997C22.753623188405797,412.86105593316114,28.442028985507246,412.6395925802888,34.130434782608695,414.3720384640278C39.81884057971015,416.1044843477667,45.507246376811594,419.7908394681167,51.19565217391304,426.43873550854727C56.88405797101449,433.0866315489778,62.57246376811594,442.6960685094889,68.26086956521739,450.2826459472444C73.94927536231883,457.869223385,79.6376811594203,463.43294130000004,85.32608695652173,459.88244890000004C91.01449275362319,456.3319565,96.70289855072463,443.667253785,102.39130434782608,434.3809427218334C108.07971014492755,425.0946316586667,113.76811594202898,419.18671224733333,119.45652173913044,415.7519497817778C125.14492753623188,412.31718731622226,130.83333333333334,411.3555817964445,136.52173913043478,407.6681806059834C142.21014492753622,403.98077941552225,147.89855072463766,397.5675825543778,153.58695652173913,394.7334505575084C159.2753623188406,391.8993185606389,164.96376811594203,392.64425142804447,170.65217391304347,394.85794616867224C176.3405797101449,397.0716409093,182.02898550724638,400.75409752315,187.71739130434784,402.01060284040835C193.40579710144928,403.26710815766666,199.09420289855072,402.0976621783334,204.78260869565216,402.40697959486107C210.4710144927536,402.7162970113889,216.15942028985503,404.50437782377776,221.8478260869565,408.69760361632217C227.53623188405797,412.89082940886664,233.2246376811594,419.4892001815667,238.91304347826087,424.5567923461583C244.60144927536234,429.62438451074996,250.28985507246375,433.16119806723333,255.97826086956522,435.1930171998556C261.6666666666667,437.22483633247776,267.3550724637681,437.75166104123895,273.04347826086956,440.3175178535889C278.731884057971,442.8833746659389,284.42028985507244,447.48826358187785,290.1086956521739,449.70224349310564C295.7971014492753,451.9162234043334,301.4855072463768,451.73929431085,307.17391304347825,455.0309308797194C312.8623188405797,458.32256744858887,318.5507246376812,465.08276967981107,324.2391304347826,471.0514898855499C329.92753623188406,477.02021009128885,335.6159420289855,482.1974482715444,341.30434782608694,490.70360298903614C346.99275362318843,499.2097577065278,352.6811594202898,511.0448289612555,358.3695652173913,516.6697473625917C364.05797101449275,522.2946657639278,369.74637681159425,521.7094313118722,375.4347826086957,520.9406510217972C381.1231884057972,520.1718707317223,386.81159420289856,519.2195446036278,392.5,516.9327756242028C398.18840579710144,514.6460066447778,403.8768115942028,511.02479481402224,409.5652173913043,513.1294571265917C415.25362318840575,515.2341194391611,420.94202898550725,523.0646558950556,426.6304347826087,528.6827404377945C432.3188405797102,534.3008249805333,438.00724637681157,537.7064576101166,443.695652173913,537.2405715553974C449.3840579710145,536.7746855006783,455.072463768116,532.4372807616567,460.7608695652175,527.5034942459974C466.4492753623188,522.5697077303383,472.1376811594203,517.0395394380416,477.82608695652175,510.55032080164966C483.5144927536232,504.06110216525775,489.2028985507247,496.6128331847706,494.89130434782606,489.8881771064686C500.57971014492756,483.1635210281667,506.268115942029,477.16247785205,511.9565217391305,474.7528702529333C517.6449275362319,472.3432626538167,523.3333333333334,473.52509063170004,529.0217391304348,471.5443008671425C534.7101449275361,469.563511102585,540.3985507246376,464.4201035955866,546.0869565217391,459.3093531335344C551.7753623188406,454.1986026714822,557.463768115942,449.12050925437615,563.1521739130435,443.00956860139695C568.8405797101449,436.89862794841775,574.5289855072464,429.7548400595656,580.2173913043479,419.34840016140225C585.9057971014493,408.94196026323897,591.5942028985507,395.2728683557645,597.2826086956522,387.4996979744153C602.9710144927536,379.7265275930661,608.6594202898551,377.84927873784227,614.3478260869565,372.3477172035784C620.036231884058,366.84615566931444,625.7246376811594,357.7202814560105,631.4130434782609,352.17498930496527C637.1014492753624,346.62969715392,642.7898550724639,344.6649870651334,648.4782608695652,341.55361909598145C654.1666666666666,338.4422511268295,659.8550724637681,334.18422527731224,665.5434782608695,330.00356924455974C671.231884057971,325.8229132118072,676.9202898550724,321.71962699581945,682.6086956521739,309.56306094626945C688.2971014492754,297.40649489671944,693.9855072463769,277.1966490136072,699.6739130434784,256.18556489857696C705.3623188405796,235.17448078354667,711.0507246376811,213.36215843659838,716.7391304347826,200.83384879825834C722.427536231884,188.30553915991837,728.1159420289855,185.0612422301867,733.804347826087,181.2965697819989C739.4927536231885,177.53189733381112,745.18115942029,173.24684936716721,750.8695652173914,169.451844579195C756.5579710144929,165.65683979122278,762.2463768115941,162.35187818192222,767.9347826086956,158.5857250452128C773.623188405797,154.81957190850332,779.3115942028985,150.592227244385,782.1557971014494,148.4785549123258L785,146.36488258026662L785,352.4287920372667L782.1557971014494,349.3661254276592C779.3115942028985,346.3034588180517,773.623188405797,340.1781255988367,767.9347826086956,332.57603075899056C762.2463768115941,324.9739359191445,756.5579710144929,315.8950794586672,750.8695652173914,306.93513595072835C745.18115942029,297.9751924427894,739.4927536231885,289.13416188738887,733.804347826087,279.70226044896555C728.1159420289855,270.27035901054217,722.427536231884,260.24758668909607,716.7391304347826,264.03801056640276C711.0507246376811,267.82843444370945,705.3623188405796,285.4320545197689,699.6739130434781,302.87195681274363C693.9855072463769,320.3118591057184,688.2971014492754,337.58804361560834,682.6086956521739,346.5422577190472C676.9202898550724,355.49647182248606,671.231884057971,356.1287155194739,665.5434782608695,356.9902770096708C659.8550724637681,357.8518384998678,654.1666666666666,358.94271778327385,648.4782608695652,359.6862811115925C642.7898550724639,360.42984443991116,637.1014492753624,360.8260918131422,631.4130434782609,365.15871153352083C625.7246376811594,369.49133125389943,620.036231884058,377.7603233214256,614.3478260869565,382.6413836943005C608.6594202898551,387.5224440671755,602.9710144927536,389.0155727453994,597.2826086956521,396.40842223953194C591.5942028985507,403.8012717336644,585.9057971014493,417.09384204370554,580.2173913043478,427.1947933466467C574.5289855072464,437.29574464958773,568.8405797101449,444.20507694542886,563.1521739130435,449.88351386435244C557.463768115942,455.56195078327613,551.7753623188406,460.0094923252823,546.0869565217391,463.97789341640174C540.3985507246376,467.94629450752115,534.7101449275361,471.435555147754,529.0217391304348,472.5529552825281C523.3333333333334,473.6703554173023,517.6449275362319,472.41589504661783,511.95652173913044,474.78918644933384C506.268115942029,477.16247785205,500.57971014492756,483.1635210281667,494.8913043478262,489.8881771064686C489.2028985507247,496.6128331847706,483.5144927536232,504.06110216525775,477.82608695652175,510.55032080164966C472.1376811594203,517.0395394380416,466.4492753623188,522.5697077303383,460.76086956521743,527.5034942459974C455.072463768116,532.4372807616567,449.3840579710145,536.7746855006783,443.695652173913,537.2405715553974C438.00724637681157,537.7064576101166,432.3188405797102,534.3008249805333,426.63043478260875,528.6827404377945C420.94202898550725,523.0646558950556,415.25362318840575,515.2341194391611,409.5652173913043,513.1294571265917C403.8768115942028,511.02479481402224,398.18840579710144,514.6460066447778,392.5,516.9327756242028C386.81159420289856,519.2195446036278,381.1231884057972,520.1718707317223,375.4347826086957,520.9406510217973C369.74637681159425,521.7094313118722,364.05797101449275,522.2946657639278,358.3695652173913,516.6697473625917C352.6811594202898,511.0448289612555,346.99275362318843,499.2097577065278,341.30434782608694,490.703602989036C335.6159420289855,482.1974482715444,329.92753623188406,477.02021009128885,324.2391304347826,471.05148988555C318.5507246376812,465.08276967981107,312.8623188405797,458.32256744858887,307.17391304347825,455.0309308797195C301.4855072463768,451.73929431085,295.7971014492753,451.9162234043334,290.1086956521739,449.70224349310564C284.42028985507244,447.48826358187785,278.731884057971,442.8833746659389,273.04347826086956,440.3175178535889C267.3550724637681,437.75166104123895,261.6666666666667,437.22483633247776,255.97826086956525,435.19301719985555C250.28985507246375,433.16119806723333,244.60144927536234,429.62438451074996,238.91304347826087,424.5567923461584C233.2246376811594,419.4892001815667,227.53623188405797,412.89082940886664,221.84782608695653,408.69760361632217C216.15942028985503,404.50437782377776,210.4710144927536,402.7162970113889,204.78260869565213,402.40697959486107C199.09420289855072,402.0976621783334,193.40579710144928,403.26710815766666,187.71739130434784,402.01060284040835C182.02898550724638,400.75409752315,176.3405797101449,397.0716409093,170.65217391304347,394.85794616867224C164.96376811594203,392.64425142804447,159.2753623188406,391.8993185606389,153.58695652173913,394.7334505575083C147.89855072463766,397.5675825543778,142.21014492753622,403.98077941552225,136.52173913043478,407.6681806059833C130.83333333333334,411.3555817964445,125.14492753623188,412.31718731622226,119.45652173913044,415.7519497817778C113.76811594202898,419.18671224733333,108.07971014492755,425.0946316586667,102.39130434782608,434.3809427218334C96.70289855072463,443.667253785,91.01449275362319,456.3319565,85.32608695652173,459.88244890000004C79.6376811594203,463.43294130000004,73.94927536231883,457.869223385,68.26086956521739,450.2826459472444C62.57246376811594,442.6960685094889,56.88405797101449,433.0866315489778,51.19565217391304,426.43873550854727C45.507246376811594,419.7908394681167,39.81884057971015,416.1044843477667,34.130434782608695,414.3720384640278C28.442028985507246,412.6395925802888,22.753623188405797,412.86105593316114,17.065217391304348,413.36960436239997C11.376811594202898,413.8781527916389,5.688405797101449,414.6737862972445,2.8442028985507246,415.07160305004726L0,415.46941980285004Z"><title>Streaming</title></path><path fill="#8c564b" d="M0,143.53058019715004L2.8442028985507246,143.92839694995283C5.688405797101449,144.32621370275558,11.376811594202898,145.12184720836115,17.065217391304348,145.63039563760003C22.753623188405797,146.13894406683892,28.442028985507246,146.36040741971115,34.130434782608695,144.62796153597228C39.81884057971015,142.8955156522334,45.507246376811594,139.20916053188338,51.19565217391304,132.56126449145282C56.88405797101449,125.91336845102224,62.57246376811594,116.30393149051112,68.26086956521739,108.71735405275558C73.94927536231883,101.13077661500002,79.6376811594203,95.56705870000003,85.32608695652173,99.11755110000003C91.01449275362319,102.66804350000002,96.70289855072463,115.332746215,102.39130434782608,124.61905727816668C108.07971014492755,133.90536834133331,113.76811594202898,139.81328775266664,119.45652173913044,143.2480502182222C125.14492753623188,146.68281268377777,130.83333333333334,147.64441820355555,136.52173913043478,150.99848606068335C142.21014492753622,154.35255391781112,147.89855072463766,160.0990841122889,153.58695652173913,162.76654944249165C159.2753623188406,165.43401477269444,164.96376811594203,165.02241523862224,170.65217391304347,185.95365182077225C176.3405797101449,206.88488840292223,182.02898550724638,249.15896110129447,187.71739130434784,270.3513301568139C193.40579710144928,291.5436992123333,199.09420289855072,291.65436462499997,204.78260869565216,291.20732746625C210.4710144927536,290.76029030749993,216.15942028985503,289.7555505773333,221.8478260869565,303.4221964649333C227.53623188405797,317.0888423525333,233.2246376811594,345.4268738578999,238.91304347826087,364.09587878199164C244.60144927536234,382.7648837060833,250.28985507246375,391.76486204890006,255.97826086956522,398.72555865502227C261.6666666666667,405.6862552611445,267.3550724637681,410.6076701305722,273.04347826086956,416.30896550964445C278.731884057971,422.0102608887167,284.42028985507244,428.49143677743336,290.1086956521739,433.8159197393556C295.7971014492753,439.14040270127776,301.4855072463768,443.30819273640554,307.17391304347825,448.8870493946528C312.8623188405797,454.4659060529,318.5507246376812,461.45582933426664,324.2391304347826,467.68040290727777C329.92753623188406,473.90497648028895,335.6159420289855,479.3642003449445,341.30434782608694,488.00049614382505C346.99275362318843,496.63679194270554,352.6811594202898,508.45015967581116,358.3695652173913,514.0318821800751C364.05797101449275,519.613604684339,369.74637681159425,518.9636819597612,375.4347826086957,518.0967835205751C381.1231884057972,517.2298850813889,386.81159420289856,516.1460109275945,392.5,513.9008452729084C398.18840579710144,511.6556796182222,403.8768115942028,508.2492224626444,409.5652173913043,510.5239237490194C415.25362318840575,512.7986250353944,420.94202898550725,520.7544847637222,426.6304347826087,526.4430995424223C432.3188405797102,532.1317143211222,438.00724637681157,535.5530841501944,443.695652173913,535.1395625760197C449.3840579710145,534.7260410018449,455.072463768116,530.4776280244233,460.7608695652175,525.5700169065753C466.4492753623188,520.6624057887273,472.1376811594203,515.0955965304528,477.82608695652175,508.6672505339386C483.5144927536232,502.2389045374245,489.2028985507247,494.9490218026706,494.89130434782606,488.15437041344643C500.57971014492756,481.35971902422233,506.268115942029,475.06029898052776,511.9565217391305,472.2372058963556C517.6449275362319,469.4141128121834,523.3333333333334,470.0673466875334,529.0217391304348,469.51670584260916C534.7101449275361,468.966064997685,540.3985507246376,467.21154943248666,546.0869565217391,464.1105208788845C551.7753623188406,461.0094923252823,557.463768115942,456.56195078327613,563.1521739130435,450.88351386435244C568.8405797101449,445.20507694542886,574.5289855072464,438.29574464958773,580.2173913043479,429.4286287345838C585.9057971014493,420.56151281958,591.5942028985507,409.73661328541334,597.2826086956522,402.3437637912809C602.9710144927536,394.9509142971483,608.6594202898551,390.9901148430499,614.3478260869565,386.7453069555516C620.036231884058,382.50049906805333,625.7246376811594,377.97168274715494,631.4130434782609,375.3549261161213C637.1014492753624,372.7381694850878,642.7898550724639,372.03347254391883,648.4782608695652,370.933436262023C654.1666666666666,369.83339998012724,659.8550724637681,368.3380243575045,665.5434782608695,367.21677598706924C671.231884057971,366.09552761663394,676.9202898550724,365.3484064983861,682.6086956521739,363.8853365068173C688.2971014492754,362.42226651524834,693.9855072463769,360.24324765035834,699.6739130434784,357.4438732324808C705.3623188405796,354.64449881460337,711.0507246376811,351.22476884373833,716.7391304347826,351.1022869963011C722.427536231884,350.97980514886393,728.1159420289855,354.1545714248544,733.804347826087,357.80856686492217C739.4927536231885,361.46256230498994,745.18115942029,365.59578690913503,750.8695652173914,369.09178627775276C756.5579710144929,372.58778564637055,762.2463768115941,375.4465597794611,767.9347826086956,378.77699758016666C773.623188405797,382.1074353808722,779.3115942028985,385.90953684919276,782.1557971014494,387.8105875833531L785,389.71163831751335L785,401.48061853554333L782.1557971014494,399.2988737002831C779.3115942028985,397.1171288650228,773.623188405797,392.7536391945023,767.9347826086956,389.06218373746947C762.2463768115941,385.3707282804367,756.5579710144929,382.3513070368917,750.8695652173914,378.66708474234946C745.18115942029,374.98286244780724,739.4927536231885,370.63383910226776,733.804347826087,366.801933988895C728.1159420289855,362.97002887552225,722.427536231884,359.6552419943161,716.7391304347826,359.33232497948444C711.0507246376811,359.0094079646528,705.3623188405796,361.6783608161956,699.6739130434781,363.96727863019754C693.9855072463769,366.2561964441995,688.2971014492754,368.1650792206606,682.6086956521739,369.2974940733555C676.9202898550724,370.4299089260506,671.231884057971,370.78585585497945,665.5434782608695,371.54306665278637C659.8550724637681,372.30027745059334,654.1666666666666,373.4587521172784,648.4782608695652,374.2580871730731C642.7898550724639,375.05742222886784,637.1014492753624,375.49761767377225,631.4130434782609,377.87355098758417C625.7246376811594,380.2494843013961,620.036231884058,384.56115548411555,614.3478260869565,388.665358549805C608.6594202898551,392.76956161549447,602.9710144927536,396.6662965641539,597.2826086956521,403.8809079887353C591.5942028985507,411.09551941331665,585.9057971014493,421.62800731382004,580.2173913043478,430.34615397225724C574.5289855072464,439.0643006306944,568.8405797101449,445.96810604706553,563.1521739130435,451.65701545218195C557.463768115942,457.34592485729837,551.7753623188406,461.81993825116,546.0869565217391,465.00103453570665C540.3985507246376,468.18213082025335,534.7101449275361,470.07030999548505,529.0217391304348,470.71489050063695C523.3333333333334,471.3594710057889,517.6449275362319,470.7604528408612,511.95652173913044,473.6281320131223C506.268115942029,476.4958111853834,500.57971014492756,482.83018769483334,494.8913043478262,489.72151043980193C489.2028985507247,496.6128331847706,483.5144927536232,504.06110216525775,477.82608695652175,510.55032080164966C472.1376811594203,517.0395394380416,466.4492753623188,522.5697077303383,460.76086956521743,527.5034942459974C455.072463768116,532.4372807616567,449.3840579710145,536.7746855006783,443.695652173913,537.2405715553974C438.00724637681157,537.7064576101166,432.3188405797102,534.3008249805333,426.63043478260875,528.6827404377945C420.94202898550725,523.0646558950556,415.25362318840575,515.2341194391611,409.5652173913043,513.1294571265917C403.8768115942028,511.02479481402224,398.18840579710144,514.6460066447778,392.5,516.9327756242028C386.81159420289856,519.2195446036278,381.1231884057972,520.1718707317223,375.4347826086957,520.9406510217973C369.74637681159425,521.7094313118722,364.05797101449275,522.2946657639278,358.3695652173913,516.6697473625917C352.6811594202898,511.0448289612555,346.99275362318843,499.2097577065278,341.30434782608694,490.703602989036C335.6159420289855,482.1974482715444,329.92753623188406,477.02021009128885,324.2391304347826,471.05148988555C318.5507246376812,465.08276967981107,312.8623188405797,458.32256744858887,307.17391304347825,453.5535955584972C301.4855072463768,448.7846236684056,295.7971014492753,446.0068821194445,290.1086956521739,442.7009679582167C284.42028985507244,439.395053796989,278.731884057971,435.56096702349447,273.04347826086956,434.47244553236675C267.3550724637681,433.3839240412389,261.6666666666667,435.04096783247786,255.97826086956525,434.10108294985554C250.28985507246375,433.16119806723333,244.60144927536234,429.62438451074996,238.91304347826087,415.95284856004724C233.2246376811594,402.2813126093444,227.53623188405797,378.4750542644222,221.84782608695653,370.5161902514888C216.15942028985503,362.55732623855556,210.4710144927536,370.4458565576111,204.78260869565213,377.5853360086389C199.09420289855072,384.7248154596667,193.40579710144928,391.1152440426667,187.71739130434784,375.04268388531386C182.02898550724638,358.97012372796115,176.3405797101449,320.4345748302556,170.65217391304347,304.57421135105005C164.96376811594203,288.7138478718445,159.2753623188406,295.52866981113897,153.58695652173913,301.72997155710283C147.89855072463766,307.9312733030667,142.21014492753622,313.51905485570006,136.52173913043478,316.9765432244056C130.83333333333334,320.4340315931111,125.14492753623188,321.7612267778889,119.45652173913044,322.9216559953889C113.76811594202898,324.0820852128889,108.07971014492755,325.0757484631111,102.39130434782608,327.9123507012778C96.70289855072463,330.74895293944445,91.01449275362319,335.42849416555555,85.32608695652173,338.90065666277775C79.6376811594203,342.37281916,73.94927536231883,344.63760292833337,68.26086956521739,343.88056305608893C62.57246376811594,343.1235231838445,56.88405797101449,339.34465967102227,51.19565217391304,337.30915343923056C45.507246376811594,335.2736472074389,39.81884057971015,334.98149825667775,34.130434782608695,334.6319362170833C28.442028985507246,334.2823741774889,22.753623188405797,333.8753990490611,17.065217391304348,334.1710617081556C11.376811594202898,334.46672436725004,5.688405797101449,335.46502481386665,2.8442028985507246,335.964175037175L0,336.4633252604833Z"><title>Vinyl</title></path></g><g id="xAxis" transform="translate(0,560)" fill="none" font-size="10" font-family="sans-serif" text-anchor="middle"><path class="domain" stroke="currentColor" d="M0.5,0.5H785.5"/><g class="tick" opacity="1" transform="translate(34.630434782608695,0)"><line stroke="currentColor" y2="6"/><text fill="currentColor" y="9" dy="0.71em">1,975</text></g><g class="tick" opacity="1" transform="translate(119.95652173913044,0)"><line stroke="currentColor" y2="6"/><text fill="currentColor" y="9" dy="0.71em">1,980</text></g><g class="tick" opacity="1" transform="translate(205.28260869565216,0)"><line stroke="currentColor" y2="6"/><text fill="currentColor" y="9" dy="0.71em">1,985</text></g><g class="tick" opacity="1" transform="translate(290.6086956521739,0)"><line stroke="currentColor" y2="6"/><text fill="currentColor" y="9" dy="0.71em">1,990</text></g><g class="tick" opacity="1" transform="translate(375.9347826086957,0)"><line stroke="currentColor" y2="6"/><text fill="currentColor" y="9" dy="0.71em">1,995</text></g><g class="tick" opacity="1" transform="translate(461.26086956521743,0)"><line stroke="currentColor" y2="6"/><text fill="currentColor" y="9" dy="0.71em">2,000</text></g><g class="tick" opacity="1" transform="translate(546.5869565217391,0)"><line stroke="currentColor" y2="6"/><text fill="currentColor" y="9" dy="0.71em">2,005</text></g><g class="tick" opacity="1" transform="translate(631.9130434782609,0)"><line stroke="currentColor" y2="6"/><text fill="currentColor" y="9" dy="0.71em">2,010</text></g><g class="tick" opacity="1" transform="translate(717.2391304347826,0)"><line stroke="currentColor" y2="6"/><text fill="currentColor" y="9" dy="0.71em">2,015</text></g></g><text y="556" x="785" text-anchor="end" style="font-family: Arial, sans-serif; font-size: 12px; fill: rgb(123, 123, 123); font-weight: bold;">Year</text><text x="4" text-anchor="start" dominant-baseline="hanging" style="font-family: Arial, sans-serif; font-size: 12px; fill: rgb(123, 123, 123); font-weight: bold;">Revenues in millions (Adjusted for inflation)</text><g id="labels"><text x="255.97826086956522" y="206.09426222778333" text-anchor="middle" alignment-baseline="middle" style="font-family: Arial, sans-serif; font-size: 10px; fill: black; font-weight: bold;">Tape</text><text x="443.695652173913" y="249.32172815079997" text-anchor="middle" alignment-baseline="middle" style="font-family: Arial, sans-serif; font-size: 10px; fill: black; font-weight: bold;">Disc</text><text x="665.5434782608695" y="224.042138797725" text-anchor="middle" alignment-baseline="middle" style="font-family: Arial, sans-serif; font-size: 10px; fill: black; font-weight: bold;">Download</text><text x="529.0217391304348" y="453.235670209465" text-anchor="middle" alignment-baseline="middle" style="font-family: Arial, sans-serif; font-size: 10px; fill: black; font-weight: bold;">Other</text><text x="785" y="249.39683730876666" text-anchor="end" alignment-baseline="middle" style="font-family: Arial, sans-serif; font-size: 10px; fill: black; font-weight: bold;">Streaming</text><text x="85.32608695652173" y="215.0556880883333" text-anchor="middle" alignment-baseline="middle" style="font-family: Arial, sans-serif; font-size: 10px; fill: black; font-weight: bold;">Vinyl</text></g></g><text x="4" y="4" style="font-family: Arial, sans-serif; font-size: 12px; fill: black; font-weight: bold; dominant-baseline: hanging;"/></g></g></svg>